<svg width="900" height="597" viewBox="0 0 900 597" fill="none" xmlns="http://www.w3.org/2000/svg">
<path fill-rule="evenodd" clip-rule="evenodd" d="M75.6248 527.895H861.131C876.728 494.164 895.784 441.652 898.829 375.508C901.024 327.84 902.932 286.382 876.835 265.538C843.104 238.597 797.669 293.762 737.016 289.103C620.074 280.121 600.119 60.3924 477.801 47.169C361.549 34.6002 243.245 191.237 217.015 284.39C214.099 294.745 209.085 317.295 189.784 330.473C153.355 355.346 112.888 314.84 64.6277 333.091C29.4696 346.388 -2.97174 388.278 0.21709 435.206C3.02661 476.543 32.9069 513.343 75.6248 527.895Z" fill="url(#paint0_linear)"/>
<path fill-rule="evenodd" clip-rule="evenodd" d="M266.489 525.271C269.921 523.998 261.969 457.586 213.684 397.677C198.259 378.538 168.667 341.823 134.096 345.393C124.819 346.352 109.912 350.755 106.602 360.876C102.773 372.587 115.647 388.371 128.323 396.104C144.474 405.958 154.002 398.892 163.354 408.394C173.999 419.21 163.819 430.565 175.106 448.546C184.268 463.144 200.038 470.094 205.982 472.714C215.828 477.054 219.215 476.134 226.477 478.756C255.393 489.193 263.878 526.24 266.489 525.271Z" fill="#CDE2FF"/>
<path fill-rule="evenodd" clip-rule="evenodd" d="M265.371 526.316C268.013 522.044 212.631 466.903 132.737 453.178C83.5294 444.724 59.8601 457.966 51.4684 463.521C48.117 465.74 28.877 478.48 31.3214 489.532C33.837 500.907 59.0489 509.269 77.0353 502.059C93.4155 495.495 93.3454 480.203 105.664 478.7C119.793 476.975 124.064 496.576 146.477 505.71C165.264 513.367 173.52 504.181 201.233 505.7C241.053 507.882 263.702 529.015 265.371 526.316Z" fill="#CDE2FF"/>
<path fill-rule="evenodd" clip-rule="evenodd" d="M269.298 526.542C275.563 527.163 307.119 434.444 278.553 336.95C260.959 276.903 233.015 257.553 222.139 251.169C217.794 248.619 192.853 233.981 181.76 242.821C170.344 251.919 174.82 284.906 192.844 301.18C209.259 316.001 226.431 307.499 234.91 320.537C244.635 335.49 224.926 351.097 226.992 381.358C228.723 406.724 243.61 410.957 257.169 442.989C276.65 489.011 265.338 526.15 269.298 526.542Z" fill="#CDE2FF"/>
<path fill-rule="evenodd" clip-rule="evenodd" d="M682.556 535.227C677.906 528.073 689.384 509.425 704.026 499.618C717.942 490.297 726.143 494.704 742.255 487.049C760.021 478.607 769.29 464.104 778.388 449.869C799.476 416.871 789.859 403.73 806.666 388.6C823.306 373.621 853.796 367.54 872.124 381.792C881.586 389.149 890.143 403.743 886.263 418.449C882.633 432.206 863.07 425.979 842.275 444.63C837.931 448.528 827.487 458.114 822.376 473.432C816.448 491.197 823.817 498.316 818.186 507.994C810.938 520.453 793.319 517.944 759.012 522.657C708.319 529.623 687.746 543.214 682.556 535.227Z" fill="#3FC377"/>
<path fill-rule="evenodd" clip-rule="evenodd" d="M739.635 360.323C732.435 398.692 747.721 413.354 741.206 439.92C734.53 467.146 700.36 464.464 691.458 495.429C689.588 501.927 689.463 506.787 685.174 513.757C677.46 526.304 664.3 532.641 653.089 536.055C651.851 536.431 650.519 536.353 649.334 535.835C649.221 535.789 649.111 535.736 649.004 535.678C647.87 535.099 646.974 534.141 646.475 532.97C643.306 525.548 640.856 515.941 643.28 505.902C646.611 492.124 656.388 488.862 665.274 476.577C669.919 470.151 673.758 462.05 676.795 406.929C679.471 358.343 676.87 357.861 680.984 345.136C689.264 319.555 699.308 323.001 712.928 292.77C726.811 261.952 719.977 250.364 736.493 226.788C742.102 218.786 755.874 199.122 770.008 201.65C770.118 201.671 770.232 201.692 770.344 201.718C770.475 201.739 770.605 201.77 770.736 201.802C782.592 204.567 790.839 222.293 792.003 237.26C793.783 260.122 778.434 268.648 757.441 313.191C747.511 334.255 742.552 344.791 739.635 360.323Z" fill="#3FC377"/>
<path fill-rule="evenodd" clip-rule="evenodd" d="M770.737 201.803C770.671 212.75 769.649 223.669 767.683 234.437C764.625 251.08 759.221 267.35 751.188 282.274L749.675 285.066C749.135 285.977 748.575 286.872 748.025 287.778L746.37 290.491L744.595 293.125C743.992 293.994 743.422 294.89 742.799 295.743L740.924 298.304C739.693 300.032 738.358 301.676 737.07 303.357C731.838 310.003 726.392 316.512 722.098 323.806C717.778 331.079 714.851 339.098 712.824 347.293C710.834 355.504 709.818 363.972 710.195 372.418C710.371 376.639 710.831 380.843 711.572 385.002C712.3 389.165 713.269 393.287 714.301 397.387C715.332 401.487 716.426 405.582 717.28 409.729C718.192 413.874 718.72 418.094 718.856 422.336C718.945 426.583 718.448 430.823 717.38 434.935C716.294 439.039 714.748 443.008 712.771 446.765C711.791 448.645 710.71 450.471 709.535 452.237C708.346 453.993 707.058 455.681 705.676 457.29C704.288 458.892 702.824 460.423 701.282 461.883C699.738 463.333 698.14 464.726 696.517 466.083C693.26 468.79 689.903 471.372 686.683 474.105C683.437 476.817 680.363 479.727 677.477 482.819C671.716 489.014 666.94 496.068 662.903 503.488C657.3 513.785 652.754 524.622 649.335 535.835C647.816 540.815 646.523 545.855 645.456 550.953L645.299 550.922C646.304 545.79 647.54 540.709 649.006 535.678C652.284 524.401 656.695 513.484 662.172 503.095C666.168 495.591 670.943 488.427 676.725 482.117C679.615 478.973 682.697 476.011 685.952 473.246C689.183 470.466 692.524 467.853 695.734 465.145C697.338 463.784 698.902 462.401 700.41 460.961C701.908 459.516 703.331 458.006 704.678 456.431C706.015 454.853 707.264 453.202 708.422 451.487C709.565 449.761 710.616 447.974 711.569 446.135C713.483 442.465 714.979 438.592 716.03 434.588C717.052 430.596 717.523 426.481 717.429 422.361C717.278 418.211 716.749 414.083 715.847 410.029C714.989 405.939 713.889 401.865 712.847 397.754C711.805 393.643 710.81 389.485 710.061 385.27C709.294 381.045 708.815 376.772 708.626 372.482C708.265 363.878 709.335 355.259 711.37 346.943C713.444 338.642 716.45 330.479 720.869 323.084C725.257 315.674 730.782 309.118 736.003 302.515C741.224 295.911 746.084 289.051 750.121 281.694L751.645 278.939C752.127 278.007 752.567 277.054 753.028 276.112L754.405 273.277C754.629 272.8 754.877 272.335 755.081 271.853L755.694 270.402L758.145 264.59L760.333 258.667C763.102 250.709 765.288 242.56 766.874 234.285C768.984 223.552 770.145 212.655 770.346 201.718C770.475 201.74 770.606 201.772 770.737 201.803Z" fill="white"/>
<path fill-rule="evenodd" clip-rule="evenodd" d="M649.564 491.239C648.045 511.484 657.969 525.011 650.611 531.562C648.862 533.128 646.563 533.902 644.097 534.143C643.919 534.159 643.746 534.175 643.575 534.185C639.659 534.452 635.4 533.431 632.284 532.085C609.678 522.329 608.866 479.064 608.719 471.34C608.17 441.983 617.648 439.187 618.145 409.547C618.617 381.531 610.248 378.164 607.672 348.802C604.519 312.951 612.752 269.613 625.649 263.994C625.811 263.919 625.968 263.858 626.13 263.8C626.597 263.633 627.08 263.514 627.57 263.444C639.51 261.804 657.666 291.758 661.609 320.523C665.584 349.508 652.146 355.593 656.372 387.029C660.043 414.327 671.506 419.611 671.035 441.49C670.532 464.989 651.418 466.533 649.564 491.239Z" fill="#AACEF2"/>
<path fill-rule="evenodd" clip-rule="evenodd" d="M653.807 545.643L653.702 545.758C649.971 542.226 646.58 538.352 643.574 534.185C642.726 533.017 641.909 531.818 641.123 530.605C637.495 525.078 634.517 519.151 632.247 512.942C629.992 506.704 628.496 500.217 627.79 493.622C627.367 490.284 627.386 486.906 627.848 483.573C628.347 480.244 629.242 476.986 630.513 473.869C632.99 467.653 636.31 461.998 638.52 455.95C640.771 449.925 641.941 443.55 641.976 437.118C642.016 433.914 641.803 430.711 641.337 427.541C640.806 424.386 639.964 421.292 638.824 418.303C637.708 415.271 636.457 412.208 635.388 409.054C634.325 405.895 633.437 402.68 632.728 399.423C632.414 397.789 632.063 396.161 631.833 394.517L631.451 392.055L631.163 389.583L630.88 387.112C630.775 386.291 630.754 385.457 630.686 384.63L630.524 382.143C630.461 381.31 630.482 380.477 630.456 379.644C630.323 372.993 630.885 366.347 632.132 359.813C633.32 353.298 634.944 346.941 636.091 340.542C637.281 334.154 637.963 327.682 638.128 321.187C638.255 314.682 637.842 308.179 636.892 301.743C635.923 295.293 634.479 288.924 632.571 282.687C630.674 276.432 628.41 270.295 625.79 264.306L625.648 263.992C625.811 263.917 625.968 263.856 626.13 263.798L626.266 264.091C628.99 270.062 631.357 276.19 633.357 282.441C635.348 288.699 636.869 295.096 637.907 301.581C638.929 308.07 639.409 314.634 639.342 321.203C639.257 327.77 638.615 334.318 637.425 340.777C636.289 347.244 634.692 353.612 633.534 360.064C632.328 366.507 631.798 373.059 631.953 379.612C631.979 380.429 631.963 381.246 632.028 382.063L632.2 384.514C632.268 385.331 632.295 386.148 632.399 386.965L632.687 389.4L632.981 391.84L633.368 394.264C633.599 395.888 633.949 397.485 634.263 399.093C634.953 402.293 635.814 405.453 636.845 408.561C637.882 411.666 639.118 414.708 640.239 417.793C641.4 420.873 642.252 424.06 642.784 427.308C643.256 430.562 643.464 433.849 643.407 437.137C643.349 443.729 642.125 450.258 639.794 456.424C638.652 459.503 637.249 462.477 635.809 465.425C634.369 468.374 632.881 471.296 631.646 474.328C630.381 477.347 629.481 480.506 628.964 483.738C628.484 486.978 628.434 490.267 628.818 493.52C629.454 500.047 630.869 506.474 633.032 512.665C635.186 518.86 638.049 524.785 641.563 530.323C642.369 531.622 643.214 532.894 644.099 534.141C645.106 535.57 646.157 536.963 647.246 538.335C649.286 540.899 651.477 543.339 653.807 545.643V545.643Z" fill="white"/>
<path fill-rule="evenodd" clip-rule="evenodd" d="M695.061 538.843C701.746 530.067 709.891 522.507 719.14 516.494C728.485 510.62 739.063 506.544 750.075 505.004C752.821 504.604 755.582 504.343 758.332 504.161C761.083 503.979 763.826 503.895 766.535 503.729C769.215 503.602 771.883 503.294 774.522 502.806C775.815 502.558 777.09 502.225 778.34 501.809C780.824 500.988 783.172 499.804 785.31 498.295C785.827 497.901 786.379 497.549 786.856 497.11L787.595 496.481C787.844 496.273 788.059 496.031 788.293 495.81C790.14 493.993 791.647 491.862 792.744 489.515C794.999 484.804 795.812 479.428 796.45 474.054C797.106 468.662 797.561 463.164 798.476 457.694C799.336 452.183 800.794 446.782 802.825 441.587C804.92 436.407 807.643 431.505 810.933 426.991C811.754 425.866 812.638 424.79 813.487 423.687L814.133 422.867L814.825 422.088L816.219 420.536C816.687 420.024 817.143 419.499 817.623 418.997L819.113 417.543L820.603 416.088L821.349 415.362L822.134 414.682L825.279 411.967C826.338 411.076 827.465 410.271 828.554 409.42L830.201 408.16C830.747 407.737 831.337 407.375 831.902 406.979L835.328 404.653C835.889 404.251 836.495 403.919 837.081 403.556L838.851 402.488L840.621 401.42C841.212 401.064 841.797 400.699 842.412 400.387L846.052 398.436L847.872 397.461C848.477 397.133 849.11 396.861 849.73 396.566C854.687 394.179 859.752 392.036 864.885 390.094L868.751 388.684C870.043 388.222 871.318 387.716 872.632 387.324L880.478 384.863L880.526 385.012C870.115 388.398 859.878 392.369 850.104 397.305C849.493 397.613 848.868 397.892 848.27 398.224L846.472 399.215L842.877 401.195C842.27 401.513 841.694 401.882 841.113 402.242L839.368 403.323L837.623 404.405C837.045 404.772 836.449 405.108 835.897 405.513L832.529 407.858C831.973 408.256 831.394 408.622 830.858 409.048L829.243 410.313C828.176 411.167 827.07 411.976 826.036 412.868L822.962 415.584C818.932 419.285 815.275 423.372 812.042 427.786C808.836 432.222 806.188 437.036 804.157 442.118C802.188 447.223 800.781 452.527 799.961 457.937C799.079 463.337 798.65 468.799 798.013 474.243C797.687 476.963 797.298 479.682 796.708 482.365C796.147 485.06 795.271 487.68 794.1 490.171C792.918 492.667 791.3 494.932 789.322 496.86C789.072 497.096 788.84 497.352 788.576 497.573L787.788 498.239C787.275 498.702 786.693 499.073 786.143 499.487C783.885 501.066 781.405 502.303 778.784 503.156C777.478 503.585 776.145 503.927 774.794 504.181C772.092 504.668 769.361 504.973 766.619 505.091C761.147 505.381 755.666 505.475 750.243 506.221C739.383 507.609 728.909 511.508 719.581 517.207C714.923 520.084 710.535 523.376 706.471 527.044C702.417 530.723 698.645 534.701 695.187 538.947L695.061 538.843Z" fill="white"/>
<path fill-rule="evenodd" clip-rule="evenodd" d="M489.322 509.043V431.542H411.818V509.043L372.545 524.753H528.598L489.322 509.043Z" fill="#404884"/>
<path fill-rule="evenodd" clip-rule="evenodd" d="M261.39 146.142H649.702C654.543 146.142 658.467 150.067 658.467 154.907V437.963C658.467 442.803 654.543 446.727 649.702 446.727H261.39C256.549 446.727 252.625 442.803 252.625 437.963V154.907C252.625 150.067 256.549 146.142 261.39 146.142Z" fill="#404884"/>
<path fill-rule="evenodd" clip-rule="evenodd" d="M268.036 154.521H643.058C648.179 154.521 652.33 158.672 652.33 163.793V420.698C652.33 425.819 648.179 429.97 643.058 429.97H268.036C262.915 429.97 258.764 425.819 258.764 420.698V163.793C258.764 158.672 262.915 154.521 268.036 154.521Z" fill="white"/>
<path fill-rule="evenodd" clip-rule="evenodd" d="M616.553 153.999C616.553 153.999 617.96 123.626 596.857 123.626H428.031C428.031 123.626 445.383 135.671 442.1 153.999H616.553Z" fill="#353B6E"/>
<path fill-rule="evenodd" clip-rule="evenodd" d="M406.059 123.101C427.53 123.101 560.018 122.053 580.44 122.579L581.21 122.599C587.567 122.77 591.961 122.579 591.438 123.626C587.223 132.055 579.839 157.952 579.393 183.324C578.538 232.107 580.479 304.319 581.218 329.094C581.286 331.381 580.424 333.598 578.83 335.239C577.236 336.881 575.046 337.806 572.757 337.805H401.269C396.656 337.807 392.892 334.113 392.807 329.501C392.21 297.175 390.265 180.541 392.966 160.283C396.109 136.716 399.252 123.101 406.059 123.101Z" fill="#604CEF"/>
<path fill-rule="evenodd" clip-rule="evenodd" d="M370.972 307.432C370.972 307.432 369.46 337.806 392.146 337.806H573.632C573.632 337.806 554.979 325.761 558.508 307.433L370.972 307.432Z" fill="#D9C7FF"/>
<rect x="418.627" y="147.975" width="131.964" height="1.57092" fill="white"/>
<rect x="418.627" y="168.136" width="131.964" height="1.57092" fill="white"/>
<rect x="418.627" y="188.297" width="131.964" height="1.57092" fill="white"/>
<rect x="418.627" y="208.459" width="131.964" height="1.57092" fill="white"/>
<rect x="418.627" y="228.62" width="131.964" height="1.57092" fill="white"/>
<rect x="418.627" y="248.781" width="131.964" height="1.57092" fill="white"/>
<rect x="418.627" y="268.942" width="131.964" height="1.57092" fill="white"/>
<rect x="418.627" y="289.103" width="131.964" height="1.57092" fill="white"/>
<rect x="416.531" y="147.19" width="72.7896" height="84.3104" fill="#604CEF"/>
<rect x="422.861" y="154.521" width="60.1305" height="69.6477" fill="#EFD883"/>
<rect x="423.793" y="157.653" width="1.57152" height="81.71" transform="rotate(-40.8249 423.793 157.653)" fill="#604CEF"/>
<rect x="423.791" y="218.418" width="81.71" height="1.57152" transform="rotate(-49.1751 423.791 218.418)" fill="#604CEF"/>
<path fill-rule="evenodd" clip-rule="evenodd" d="M619.114 190.13C619.114 190.13 608.117 179.133 618.066 178.609C628.016 178.085 645.297 175.991 643.726 185.941C642.155 195.89 641.632 199.905 637.966 200.254C634.3 200.603 619.114 190.13 619.114 190.13Z" fill="#423565"/>
<path fill-rule="evenodd" clip-rule="evenodd" d="M619.782 184C619.782 184 610.848 206.777 624.966 206.335C633.717 206.062 637.264 199.686 637.264 199.686C637.264 199.686 640.248 200.831 640.998 194.661C641.443 190.995 636.963 188.737 636.4 194.49C636.4 194.49 633.029 195.304 632.686 190.354C632.343 185.403 629.767 185.462 626.939 186.148C624.112 186.834 620.119 185.52 619.782 184Z" fill="#FFD5C0"/>
<path fill-rule="evenodd" clip-rule="evenodd" d="M638.324 199C638.324 199 639.387 208.973 642.155 213.695C642.155 213.695 645.427 217.102 648.21 218.096C651.595 219.307 634.56 246.083 629.633 237.212C624.707 228.34 625.921 224.167 625.921 224.167C625.921 224.167 630.125 218.488 629.963 217.621C629.801 216.754 626.436 205.083 626.436 205.083C626.436 205.083 627.001 193.974 638.324 199Z" fill="#FFD5C0"/>
<path fill-rule="evenodd" clip-rule="evenodd" d="M719.132 499.617L699.107 507.76C699.1 507.752 699.095 507.744 699.091 507.734C697.908 505.385 657.13 424.34 653.92 417.019C637.917 380.488 639.425 319.476 639.425 319.476H680.381C690.943 346.581 678.81 403.786 678.81 403.786C698.709 413.212 719.132 499.617 719.132 499.617Z" fill="#353B6E"/>
<path fill-rule="evenodd" clip-rule="evenodd" d="M652.104 512.709C652.149 513.048 644.351 512.52 644.396 512.848C644.935 516.921 645.771 520.949 646.897 524.9H609.234L629.697 513.101C629.697 513.029 629.697 512.946 629.692 512.848C629.618 505.369 626.522 424.93 623.546 411.913C620.533 398.732 628.065 319.264 628.065 319.264L673.05 318.952C677.63 345.127 650.533 406.928 650.533 406.928C664.672 432.065 651.098 504.926 652.104 512.709Z" fill="#404884"/>
<path fill-rule="evenodd" clip-rule="evenodd" d="M609.234 524.901L629.697 513.101C629.697 513.029 629.697 512.946 629.692 512.848H644.396C644.936 516.921 645.772 520.949 646.897 524.901H609.234Z" fill="#353B6E"/>
<path fill-rule="evenodd" clip-rule="evenodd" d="M622.508 229.58L642.232 213.695C642.232 213.695 662.132 210.204 667.892 247.035C673.652 283.867 680.461 319.476 680.461 319.476H628.093C628.093 319.476 632.806 291.198 628.093 281.247C623.38 271.297 612.209 232.897 622.508 229.58Z" fill="#808BD1"/>
<path fill-rule="evenodd" clip-rule="evenodd" d="M594.431 236.839L562.635 215.266L562.621 215.271C559.23 212.558 555.076 209.133 554.178 207.935C552.607 205.841 548.418 197.986 546.847 200.08C545.276 202.175 540.563 210.553 543.181 213.171C545.799 215.789 550.512 216.313 550.512 216.313L554.682 220.702L582.375 252.521C586.056 255.844 592.577 245.47 595.321 240.64C596.061 239.335 595.673 237.68 594.431 236.839V236.839Z" fill="#FFD5C0"/>
<path fill-rule="evenodd" clip-rule="evenodd" d="M651.135 226.263C651.657 232.024 648.7 244.938 638.566 248.781C623.946 254.325 614.833 259.008 604.085 261.974C597.92 263.675 587.122 256.808 582.375 252.522L596.595 238.307C596.595 238.307 627.511 222.899 633.254 221.039C638.997 219.179 650.325 217.352 651.135 226.263Z" fill="#404884"/>
<path fill-rule="evenodd" clip-rule="evenodd" d="M685.561 525.486L699.118 507.786C699.113 507.779 699.11 507.77 699.108 507.76L712.713 502.199L712.844 502.419L720.961 516.069L685.561 525.486Z" fill="#353B6E"/>
<path fill-rule="evenodd" clip-rule="evenodd" d="M590.913 234.118C590.913 234.118 593.531 234.118 594.055 236.213C594.055 236.213 596.149 235.691 596.673 238.307L583.058 253.494C583.058 253.494 578.868 252.971 579.916 250.875C579.916 250.875 576.25 249.828 577.298 247.734L590.913 234.118Z" fill="#808BD1"/>
<path fill-rule="evenodd" clip-rule="evenodd" d="M410.125 202.008L410.108 202.031L398.202 189.607L390.348 197.462L403.331 211.836C404.014 213.208 406.266 217.257 410.188 219.868L418.85 226.241L422.249 221.621L413.82 215.309C413.82 215.309 428.467 213.068 433.725 205.922L437.124 201.301C437.124 201.301 425.569 209.044 410.125 202.008Z" fill="#353B6E"/>
<path fill-rule="evenodd" clip-rule="evenodd" d="M316.842 228.275L319.652 218.932L307.607 217.885L305.001 228.308C304.442 229.354 302.242 233.808 302.476 238.819V249.573H308.212L308.301 239.043C308.301 239.043 318.785 249.513 327.658 249.513H333.393C333.393 249.513 318.926 241.722 316.842 228.275Z" fill="#353B6E"/>
<path fill-rule="evenodd" clip-rule="evenodd" d="M355.262 126.767C350.296 152.63 322.526 209.033 317.354 228.275L302.457 223.724C302.457 223.724 308.665 202 310.527 189.792C312.389 177.584 319.63 149.239 324.596 138.893C324.596 138.893 251.559 165.998 261.491 111.582C261.49 111.58 360.227 100.903 355.262 126.767Z" fill="#353B6E"/>
<path fill-rule="evenodd" clip-rule="evenodd" d="M259.954 114.198C259.954 114.198 255.283 145.098 268.524 146.546C281.766 147.994 318.182 143.857 323.354 149.029C328.526 154.202 347.976 174.686 366.597 186.272C385.219 197.858 395.357 207.584 395.357 207.584L407.979 197.859C407.979 197.859 367.839 148.616 359.769 139.513C351.7 130.409 344.195 115.55 330.125 114.722C316.055 113.895 262.572 114.198 259.954 114.198Z" fill="#808BD1"/>
<path fill-rule="evenodd" clip-rule="evenodd" d="M286.139 0.0549546C292.855 -0.591762 298.28 4.6685 299.007 5.39316C304.784 11.1539 304.196 19.559 303.215 25.3694C301.906 33.1233 308.758 34.5491 311.773 40.8507C314.623 46.8054 311.264 56.0732 305.012 59.9691C296.417 65.3267 284.522 59.1784 278.539 53.5713C265.712 41.5489 269.938 22.5248 270.554 19.951C271.198 17.2537 275.055 1.12237 286.139 0.0549546Z" fill="#353B6E"/>
<path fill-rule="evenodd" clip-rule="evenodd" d="M296.765 9.2511C296.765 9.2511 305.157 32.8387 293.063 31.1887C285.975 30.2213 282.469 23.7008 282.469 23.7008C282.469 23.7008 279.153 24.3322 278.37 20.2759C277.848 17.5749 281.443 15.0917 282.705 19.9749C282.705 19.9749 284.135 19.9913 285.364 16.7786C286.134 14.7683 286.403 12.1729 289.224 12.7946C292.045 13.4163 296.463 10.7676 296.765 9.2511Z" fill="#FFD5C0"/>
<path fill-rule="evenodd" clip-rule="evenodd" d="M295.096 30.0945C295.096 30.0945 288.606 39.4029 289.862 44.7825C291.118 50.1621 269.752 52.3238 274.378 42.4328C279.003 32.5419 282.434 30.2925 286.524 20.9502C290.615 11.6079 295.096 30.0945 295.096 30.0945Z" fill="#FFD5C0"/>
<path fill-rule="evenodd" clip-rule="evenodd" d="M299.229 38.7908C295.185 39.7896 292.898 42.8188 293.821 46.8811C297.632 63.6897 307.225 103.616 312.338 103.631C318.815 103.649 342.695 104.773 342.695 104.773L346.36 93.2522L317.559 94.2995L308.131 50.8352C307.497 47.222 307.273 43.2495 304.367 41.0106C301.484 38.7908 299.229 38.7908 299.229 38.7908Z" fill="#FFD5C0"/>
<path fill-rule="evenodd" clip-rule="evenodd" d="M299.063 38.8184V38.8184C303.174 38.152 307.062 40.8978 307.808 44.9946C310.89 61.9517 327.542 84.4264 322.843 86.4441C316.891 88.9997 298.755 85.922 298.755 85.922L292.75 47.665C292.403 45.6533 292.875 43.5864 294.061 41.9247C295.247 40.263 297.048 39.1445 299.063 38.8184V38.8184Z" fill="#5141C1"/>
<path fill-rule="evenodd" clip-rule="evenodd" d="M308.655 69.1633C297.658 91.6809 311.273 114.199 311.273 114.199H259.955C259.955 114.199 274.094 91.6809 267.81 81.2074C261.526 70.7339 253.671 50.3112 255.765 44.5508C257.305 40.3091 267.365 38.9056 272.56 38.4607C274.424 38.3037 275.665 38.2668 275.665 38.2668L293.579 37.8938L297.135 38.2668C300.277 38.7889 301.523 39.1727 302.696 41.4351C307.11 49.9397 313.335 59.5831 308.655 69.1633Z" fill="#604CEF"/>
<path fill-rule="evenodd" clip-rule="evenodd" d="M354.738 91.681C354.738 91.681 362.07 87.4915 362.593 85.9206C363.117 84.3497 365.735 86.4427 363.115 89.0624C360.496 91.6821 358.402 92.7283 358.402 92.7283L354.738 91.681Z" fill="#FFD5C0"/>
<path fill-rule="evenodd" clip-rule="evenodd" d="M279.461 119.696H337.516L361.808 102.403L304.577 103.227L279.461 119.696Z" fill="#AFAFAF"/>
<path fill-rule="evenodd" clip-rule="evenodd" d="M361.808 102.404L337.516 119.698V65.966L360.83 44.8131L361.808 102.404" fill="#DDDDDD"/>
<path fill-rule="evenodd" clip-rule="evenodd" d="M282.996 102.156C282.996 102.156 292.945 104.774 294.517 104.25C296.088 103.727 301.324 100.585 304.99 102.156C307.593 103.271 311.253 105.708 313.156 107.026C313.481 107.251 313.647 107.644 313.581 108.035C313.516 108.425 313.231 108.743 312.85 108.85C311.82 109.108 310.748 109.146 309.703 108.961C305.62 108.446 301.473 108.987 297.659 110.532C294.936 111.699 279.33 108.438 279.33 108.438L282.996 102.156Z" fill="#FFD5C0"/>
<path fill-rule="evenodd" clip-rule="evenodd" d="M262.788 40.3897V40.3897C258.677 39.7221 254.788 42.4686 254.043 46.566C250.961 63.5235 245.83 101.184 250.528 103.202C256.48 105.758 284.043 109.486 284.043 109.486L286.661 102.679L261.435 93.7509L269.1 49.2349C269.446 47.2235 268.974 45.1571 267.789 43.4957C266.603 41.8344 264.802 40.716 262.788 40.3897Z" fill="#FFD5C0"/>
<path fill-rule="evenodd" clip-rule="evenodd" d="M262.787 40.3897V40.3897C258.676 39.7221 254.788 42.4686 254.042 46.566C250.961 63.5235 234.309 85.9982 239.008 88.0159C244.96 90.5714 263.096 87.4937 263.096 87.4937L269.101 49.2368C269.448 47.2249 268.976 45.1578 267.79 43.496C266.604 41.8342 264.803 40.7157 262.787 40.3897V40.3897Z" fill="#5141C1"/>
<path fill-rule="evenodd" clip-rule="evenodd" d="M357.53 92.1486C357.71 91.2184 358.5 90.5304 359.446 90.4811C361.308 90.3957 364.164 90.6098 364.164 92.7282C364.164 95.8701 363.642 101.107 359.451 100.583C356.323 100.192 356.991 94.8362 357.53 92.1486Z" fill="#FFD5C0"/>
<path fill-rule="evenodd" clip-rule="evenodd" d="M291.897 56.0716C286.373 55.6106 275.177 41.7913 272.559 38.4607C274.423 38.3037 275.664 38.2668 275.664 38.2668L293.578 37.8938C298.171 46.9862 297.914 56.5744 291.897 56.0716Z" fill="#FFD5C0"/>
<path fill-rule="evenodd" clip-rule="evenodd" d="M239.425 236.994C239.425 236.994 246.533 231.126 246.576 239.425L237.599 258.616L225.512 260.03L239.425 236.994Z" fill="#FFD5C0"/>
<path fill-rule="evenodd" clip-rule="evenodd" d="M232.726 245.115L209.162 282.296L170.934 306.384L179.574 321.832L219.111 295.911L242.676 251.924L232.726 245.115Z" fill="#3B427B"/>
<mask id="mask0" mask-type="alpha" maskUnits="userSpaceOnUse" x="170" y="245" width="73" height="77">
<path fill-rule="evenodd" clip-rule="evenodd" d="M232.726 245.115L209.162 282.296L170.934 306.384L179.574 321.832L219.111 295.911L242.676 251.924L232.726 245.115Z" fill="white"/>
</mask>
<g mask="url(#mask0)">
<path fill-rule="evenodd" clip-rule="evenodd" d="M193.159 230.59L291.621 301.76L289.627 304.521L191.165 233.35L193.159 230.59ZM276.919 314.642L178.457 243.472L180.451 240.712L278.913 311.881L276.919 314.642ZM269.403 325.039L170.941 253.87L168.947 256.63L267.409 327.8L269.403 325.039ZM161.431 267.027L259.893 338.196L257.898 340.957L159.436 269.787L161.431 267.027ZM250.382 351.353L151.92 280.183L149.926 282.943L248.388 354.113L250.382 351.353Z" fill="#808BD1"/>
</g>
<path fill-rule="evenodd" clip-rule="evenodd" d="M288.758 283.867L229.061 266.586V184.146L288.758 201.426V283.867Z" fill="#CDE2FF"/>
<path fill-rule="evenodd" clip-rule="evenodd" d="M196.887 256.541C202.694 257.191 206.355 262.617 206.841 263.361C210.711 269.274 208.714 276.293 206.847 281.044C204.355 287.385 209.908 289.814 211.341 295.693C212.695 301.25 208.196 308.505 202.202 310.693C193.959 313.702 184.974 306.37 180.903 300.549C172.173 288.071 179.147 272.698 180.127 270.626C181.155 268.456 187.299 255.469 196.887 256.541Z" fill="#353B6E"/>
<path fill-rule="evenodd" clip-rule="evenodd" d="M201.461 262.182C201.461 262.182 209.852 285.77 197.759 284.12C190.671 283.152 187.165 276.632 187.165 276.632C187.165 276.632 183.849 277.263 183.065 273.207C182.543 270.506 186.138 268.023 187.4 272.906C187.4 272.906 188.831 272.922 190.06 269.71C190.829 267.699 191.099 265.104 193.919 265.726C196.74 266.347 201.159 263.699 201.461 262.182Z" fill="#FFD5C0"/>
<path fill-rule="evenodd" clip-rule="evenodd" d="M199.789 283.026C199.789 283.026 193.3 292.334 194.556 297.714C195.811 303.093 174.445 305.255 179.071 295.364C183.697 285.473 187.127 283.224 191.218 273.881C195.308 264.539 199.789 283.026 199.789 283.026Z" fill="#FFD5C0"/>
<path fill-rule="evenodd" clip-rule="evenodd" d="M279.854 246.686C279.854 246.686 288.233 242.845 286.138 250.876L272.523 267.109L260.479 265.364L279.854 246.686Z" fill="#FFD5C0"/>
<path fill-rule="evenodd" clip-rule="evenodd" d="M103.762 550.047C102.709 553.388 101.504 560.97 109.14 567.17C119.257 575.387 115.722 583.865 115.722 583.865L81.6211 566.202C81.6211 566.202 85.711 547.428 92.1416 543.585C92.1416 543.585 92.2046 543.396 92.3195 543.03C94.608 536.133 117.948 467.124 141.466 454.671C141.466 454.671 136.894 398.026 162.905 370.272L202.981 377.284C202.981 377.284 173.341 452.032 164.612 466.338C155.882 480.645 106.6 537.379 104.428 548.318C104.163 548.877 103.94 549.454 103.762 550.047Z" fill="#5141C1"/>
<path fill-rule="evenodd" clip-rule="evenodd" d="M246.865 596.146H207.762C207.762 596.146 201.478 577.996 204.971 571.361C204.971 571.361 204.882 571 204.73 570.314C202.593 560.997 187.449 492.209 200.781 469.77C200.781 469.77 182.977 454.41 166.57 372.368L211.951 372.195C211.951 372.195 226.614 450.915 226.614 467.674C226.614 484.433 214.224 559.054 218.063 569.527C218.063 569.527 218.094 569.815 218.188 570.312C218.743 573.296 221.482 583.828 232.553 585.326C245.466 587.07 246.865 596.146 246.865 596.146Z" fill="#604CEF"/>
<path fill-rule="evenodd" clip-rule="evenodd" d="M277.934 261.176C277.934 261.176 246.687 298.88 244.77 300.1C242.853 301.321 212.476 315.459 212.476 315.459C212.476 315.459 212.47 315.49 212.455 315.554C212.104 317.444 206.632 348.058 214.748 384.238C214.748 384.238 184.025 374.199 153.652 382.488C153.652 382.488 169.362 363.291 165.524 350.021C161.685 336.752 137.591 307.432 179.835 297.309L207.621 293.481L239.01 284.39L270.953 253.322L277.934 261.176Z" fill="#3B427B"/>
<mask id="mask1" mask-type="alpha" maskUnits="userSpaceOnUse" x="153" y="293" width="62" height="92">
<path fill-rule="evenodd" clip-rule="evenodd" d="M212.455 315.553C212.104 317.444 206.632 348.057 214.748 384.237C214.748 384.237 184.025 374.199 153.652 382.488C153.652 382.488 169.362 363.291 165.524 350.021C161.685 336.751 137.591 307.432 179.834 297.309L207.62 293.481C207.62 293.481 212.469 315.491 212.455 315.553Z" fill="white"/>
</mask>
<g mask="url(#mask1)">
<path fill-rule="evenodd" clip-rule="evenodd" d="M202.66 301.933H126.16V305.337H203.406C203.316 305.12 203.223 304.907 203.139 304.682C202.805 303.805 202.642 302.872 202.66 301.933Z" fill="#808BD1"/>
<rect x="126.16" y="318.167" width="121.491" height="3.40365" fill="#808BD1"/>
<rect x="126.16" y="334.401" width="121.491" height="3.40365" fill="#808BD1"/>
<rect x="126.16" y="350.634" width="121.491" height="3.40365" fill="#808BD1"/>
<rect x="126.16" y="366.868" width="121.491" height="3.40365" fill="#808BD1"/>
</g>
<path fill-rule="evenodd" clip-rule="evenodd" d="M197.466 294.864C197.466 294.864 177.916 328.204 174.774 343.565C171.633 358.926 157.842 381.618 157.842 381.618C157.842 381.618 160.635 388.251 164.649 380.92C164.649 380.92 177.414 358.948 180.011 344.263C181.447 336.139 190.026 312.472 202.943 294.144C202.942 294.144 201.132 291.373 197.466 294.864Z" fill="#604CEF"/>
<path fill-rule="evenodd" clip-rule="evenodd" d="M175.822 297.832C175.822 297.832 180.708 331.171 192.056 355.958C199.248 371.672 205.496 382.316 205.496 382.316C205.496 382.316 203.576 386.331 199.736 381.269C195.895 376.207 189.262 361.544 181.757 341.296C174.251 321.048 171.98 298.703 171.98 298.703C171.98 298.703 172.503 292.595 175.822 297.832Z" fill="#604CEF"/>
<path fill-rule="evenodd" clip-rule="evenodd" d="M201.326 257.383C198.186 252.476 182.166 253.337 173.722 261.863C167.542 268.103 170.251 270.692 163.602 279.938C156.51 289.799 146.65 288.752 142.393 296.433C137.284 305.658 137.587 319.526 148.677 327.853C161.382 337.392 186.601 336.282 189.56 328.655C192.14 322.006 180.986 315.863 183.527 304.944C185.084 298.25 190.242 296.403 190.073 290.395C189.887 283.731 188.015 283.564 188.738 279.545C189.615 274.674 194.753 274.606 199.91 266.027C200.304 265.373 203.236 260.37 201.326 257.383Z" fill="#423565"/>
<path fill-rule="evenodd" clip-rule="evenodd" d="M246.863 596.145H207.762C207.762 596.145 201.478 577.995 204.971 571.36L218.188 570.312C218.743 573.296 221.482 583.828 232.553 585.326C245.466 587.07 246.863 596.145 246.863 596.145Z" fill="#353B6E"/>
<path fill-rule="evenodd" clip-rule="evenodd" d="M115.722 583.865L81.6211 566.202C81.6211 566.202 85.711 547.428 92.1416 543.585L103.762 550.047C102.709 553.388 101.504 560.97 109.14 567.17C119.257 575.387 115.722 583.865 115.722 583.865Z" fill="#353B6E"/>
<mask id="mask2" mask-type="alpha" maskUnits="userSpaceOnUse" x="153" y="253" width="125" height="132">
<path fill-rule="evenodd" clip-rule="evenodd" d="M277.934 261.176C277.934 261.176 246.687 298.88 244.77 300.1C242.853 301.321 212.476 315.459 212.476 315.459C212.476 315.459 212.47 315.49 212.455 315.554C212.104 317.444 206.632 348.058 214.748 384.238C214.748 384.238 184.025 374.199 153.652 382.488C153.652 382.488 169.362 363.291 165.524 350.021C161.685 336.752 137.591 307.432 179.835 297.309L207.621 293.481L239.01 284.39L270.953 253.322L277.934 261.176Z" fill="white"/>
</mask>
<g mask="url(#mask2)">
<path fill-rule="evenodd" clip-rule="evenodd" d="M239.658 218.017L306.839 319.242L304.005 321.125L236.824 219.899L239.658 218.017ZM288.549 326.138L221.367 224.912L224.202 223.029L291.383 324.255L288.549 326.138ZM277.859 333.233L210.678 232.007L207.843 233.89L275.025 335.116L277.859 333.233ZM197.151 240.984L264.333 342.209L261.498 344.092L194.317 242.866L197.151 240.984ZM250.807 351.185L183.626 249.961L180.791 251.843L247.973 353.068L250.807 351.185Z" fill="#808BD1"/>
</g>
<rect x="178.635" y="211.427" width="12.5021" height="9.63884" fill="#685696"/>
<path fill-rule="evenodd" clip-rule="evenodd" d="M198.033 194.344C198.033 186.243 191.302 179.781 183.356 180.716C177.609 181.393 172.843 186.087 171.917 192.045C171.191 196.42 172.567 200.882 175.632 204.087C177.525 205.991 178.602 208.557 178.635 211.241V211.428H191.137V211.306C191.147 208.622 192.208 206.048 194.092 204.136C196.635 201.513 198.05 197.998 198.033 194.344Z" fill="#EFD883"/>
<path fill-rule="evenodd" clip-rule="evenodd" d="M180.475 193.061C181.171 193.061 181.502 193.649 181.793 194.167C182.092 194.699 182.303 195.022 182.685 195.022C183.067 195.022 183.274 194.699 183.574 194.167C183.865 193.649 184.196 193.06 184.89 193.06C185.585 193.06 185.916 193.649 186.207 194.167C186.506 194.699 186.716 195.022 187.096 195.022C187.476 195.022 187.685 194.699 187.985 194.167C188.276 193.649 188.607 193.06 189.301 193.06C189.996 193.06 190.325 193.649 190.616 194.166C190.915 194.699 191.124 195.022 191.504 195.022C191.64 195.022 191.749 195.132 191.749 195.267C191.749 195.402 191.64 195.512 191.504 195.512C190.81 195.512 190.481 194.924 190.189 194.406C189.891 193.874 189.681 193.551 189.301 193.551C188.921 193.551 188.712 193.874 188.412 194.409C188.121 194.927 187.79 195.514 187.096 195.514C186.402 195.514 186.072 194.927 185.781 194.409C185.482 193.876 185.272 193.551 184.891 193.551C184.51 193.551 184.301 193.874 184.001 194.409C183.711 194.927 183.38 195.514 182.686 195.514C181.991 195.514 181.659 194.926 181.367 194.408C181.069 193.876 180.858 193.553 180.476 193.553C180.093 193.553 179.885 193.876 179.585 194.408C179.293 194.926 178.963 195.514 178.267 195.514C178.131 195.514 178.021 195.404 178.021 195.269C178.021 195.133 178.131 195.024 178.267 195.024C178.649 195.024 178.858 194.701 179.158 194.166C179.449 193.648 179.779 193.061 180.475 193.061Z" fill="white"/>
<path fill-rule="evenodd" clip-rule="evenodd" d="M185.346 203.046H184.427C183.595 203.046 182.92 203.589 182.92 204.259V211.429H186.853V204.259C186.851 203.589 186.177 203.046 185.346 203.046Z" fill="white"/>
<path fill-rule="evenodd" clip-rule="evenodd" d="M183.665 204.254C183.556 204.253 183.454 204.198 183.394 204.107L177.75 195.445C177.687 195.348 177.68 195.225 177.732 195.122C177.784 195.019 177.887 194.951 178.003 194.945C178.118 194.938 178.228 194.994 178.292 195.091L183.936 203.753C184.001 203.852 184.007 203.98 183.95 204.084C183.893 204.189 183.784 204.254 183.665 204.254V204.254Z" fill="white"/>
<path fill-rule="evenodd" clip-rule="evenodd" d="M186.105 204.253C185.986 204.254 185.877 204.188 185.82 204.084C185.764 203.979 185.769 203.851 185.835 203.752L191.479 195.09C191.543 194.993 191.653 194.938 191.768 194.944C191.883 194.95 191.987 195.018 192.039 195.121C192.091 195.224 192.084 195.347 192.021 195.444L186.376 204.107C186.316 204.198 186.215 204.253 186.105 204.253V204.253Z" fill="white"/>
<path fill-rule="evenodd" clip-rule="evenodd" d="M198.779 171.948C199.087 171.406 198.9 170.717 198.36 170.406C197.82 170.094 197.13 170.276 196.815 170.814L193.734 176.151C193.584 176.409 193.545 176.717 193.624 177.005C193.703 177.294 193.893 177.538 194.154 177.685L194.174 177.696C194.708 178.002 195.389 177.819 195.698 177.286L198.779 171.948Z" fill="#EFD883"/>
<path fill-rule="evenodd" clip-rule="evenodd" d="M207.815 181.814C208.353 181.499 208.536 180.809 208.224 180.269C207.912 179.729 207.223 179.542 206.681 179.85L201.345 182.931C200.813 183.24 200.629 183.921 200.935 184.455L200.946 184.475C201.093 184.736 201.337 184.926 201.625 185.005C201.914 185.084 202.221 185.045 202.48 184.895L207.815 181.814Z" fill="#EFD883"/>
<path fill-rule="evenodd" clip-rule="evenodd" d="M210.711 192.609H204.519C203.902 192.61 203.402 193.111 203.402 193.728V193.757C203.402 194.374 203.902 194.875 204.519 194.876H210.711C211.121 194.883 211.503 194.669 211.71 194.315C211.917 193.961 211.917 193.523 211.71 193.169C211.503 192.815 211.121 192.601 210.711 192.608V192.609Z" fill="#EFD883"/>
<path fill-rule="evenodd" clip-rule="evenodd" d="M206.681 207.637C207.223 207.945 207.912 207.758 208.223 207.218C208.535 206.678 208.353 205.988 207.815 205.672L202.478 202.592C202.22 202.442 201.912 202.403 201.623 202.482C201.335 202.56 201.091 202.751 200.944 203.012L200.933 203.032C200.627 203.566 200.811 204.247 201.343 204.555L206.681 207.637Z" fill="#EFD883"/>
<path fill-rule="evenodd" clip-rule="evenodd" d="M161.958 205.672C161.607 205.875 161.391 206.249 161.391 206.654C161.391 207.059 161.607 207.434 161.958 207.636C162.308 207.839 162.741 207.839 163.092 207.636L168.428 204.555C168.961 204.247 169.144 203.566 168.838 203.032L168.827 203.012C168.681 202.751 168.436 202.56 168.148 202.482C167.86 202.403 167.552 202.442 167.293 202.592L161.958 205.672Z" fill="#EFD883"/>
<path fill-rule="evenodd" clip-rule="evenodd" d="M166.375 193.731C166.375 193.113 165.874 192.612 165.256 192.612H159.065C158.447 192.623 157.951 193.127 157.951 193.746C157.951 194.364 158.447 194.868 159.065 194.88H165.256C165.874 194.88 166.375 194.379 166.375 193.761V193.731Z" fill="#EFD883"/>
<path fill-rule="evenodd" clip-rule="evenodd" d="M163.091 179.85C162.55 179.548 161.866 179.737 161.556 180.274C161.246 180.811 161.425 181.497 161.957 181.814L167.294 184.895C167.553 185.045 167.86 185.084 168.149 185.005C168.437 184.926 168.682 184.736 168.828 184.475L168.839 184.455C169.145 183.921 168.961 183.24 168.429 182.932L163.091 179.85Z" fill="#EFD883"/>
<path fill-rule="evenodd" clip-rule="evenodd" d="M172.958 170.814C172.643 170.276 171.953 170.094 171.413 170.406C170.873 170.717 170.686 171.406 170.994 171.948L174.075 177.284C174.384 177.817 175.065 178 175.599 177.694L175.619 177.684C175.879 177.537 176.07 177.292 176.149 177.004C176.228 176.716 176.189 176.408 176.039 176.149L172.958 170.814Z" fill="#EFD883"/>
<path fill-rule="evenodd" clip-rule="evenodd" d="M184.901 175.232C185.519 175.232 186.02 174.731 186.02 174.113V167.922C186.028 167.512 185.813 167.13 185.459 166.923C185.105 166.715 184.667 166.715 184.313 166.923C183.959 167.13 183.745 167.512 183.752 167.922V174.113C183.752 174.731 184.253 175.232 184.871 175.232H184.901Z" fill="#EFD883"/>
<path fill-rule="evenodd" clip-rule="evenodd" d="M427.852 6.80814L424.412 6.61084L423.012 9.9302L420.448 10.8253L417.289 9.09477L414.715 11.3881L416.073 14.725L414.892 17.1698L411.434 18.1805L411.236 21.6211L414.556 23.0204L415.451 25.5842L413.72 28.7439L416.014 31.3174L419.35 29.9598L421.795 31.1406L422.806 34.5987L426.247 34.796L427.646 31.4766L430.21 30.5815L433.369 32.312L435.943 30.0187L434.585 26.6818L435.766 24.237L439.224 23.2263L439.421 19.7854L436.102 18.386L435.207 15.8223L436.937 12.6625L434.644 10.0891L431.307 11.4467L428.862 10.2659L427.852 6.80814Z" fill="#705FF1"/>
<path fill-rule="evenodd" clip-rule="evenodd" d="M413.233 15.6511L411.925 11.8973L407.77 11.8712L405.686 9.53344L406.134 5.40251L402.553 3.67346L399.596 6.593L396.47 6.41361L393.867 3.1748L390.113 4.48316L390.087 8.63833L387.749 10.7221L383.618 10.2745L381.889 13.855L384.809 16.8114L384.629 19.938L381.391 22.5412L382.699 26.2947L386.854 26.3208L388.938 28.6586L388.49 32.7895L392.071 34.5186L395.028 31.599L398.154 31.7784L400.757 35.0172L404.511 33.7089L404.537 29.5537L406.875 27.4699L411.006 27.9175L412.735 24.3371L409.815 21.3802L409.994 18.2537L413.233 15.6511Z" fill="#AACEF2"/>
<path fill-rule="evenodd" clip-rule="evenodd" d="M388.739 18.6027C388.54 22.0709 390.45 25.3175 393.578 26.8286C396.706 28.3396 400.436 27.8176 403.029 25.5059C405.622 23.1942 406.567 19.5481 405.424 16.2677C404.281 12.9874 401.274 10.7188 397.806 10.5199C395.531 10.3893 393.298 11.1676 391.598 12.6834C389.898 14.1993 388.869 16.3285 388.739 18.6027Z" fill="white"/>
<path fill-rule="evenodd" clip-rule="evenodd" d="M417.445 20.2502C417.262 23.4391 419.018 26.4242 421.894 27.8134C424.77 29.2026 428.2 28.7225 430.584 26.5968C432.968 24.4712 433.837 21.1186 432.786 18.1025C431.734 15.0865 428.969 13.0008 425.78 12.8182C421.426 12.569 417.695 15.8962 417.445 20.2502V20.2502Z" fill="white"/>
<path fill-rule="evenodd" clip-rule="evenodd" d="M390.843 18.7233C390.692 21.3406 392.134 23.7907 394.494 24.9312C396.855 26.0716 399.67 25.6778 401.627 23.9333C403.584 22.1888 404.297 19.4372 403.434 16.9617C402.572 14.4861 400.302 12.774 397.685 12.6238C395.969 12.5253 394.284 13.1125 393.001 14.2564C391.717 15.4003 390.941 17.0071 390.843 18.7233Z" fill="#9082B5"/>
<path fill-rule="evenodd" clip-rule="evenodd" d="M419.447 20.365C419.31 22.7447 420.62 24.9728 422.766 26.0099C424.913 27.0471 427.472 26.689 429.252 25.1029C431.031 23.5167 431.679 21.0148 430.895 18.764C430.11 16.5132 428.046 14.9569 425.666 14.8209C422.418 14.6354 419.635 17.1171 419.447 20.365V20.365Z" fill="#9082B5"/>
<path fill-rule="evenodd" clip-rule="evenodd" d="M490.178 61.0633C492.377 61.0734 494.604 61.1088 496.798 61.1685L496.897 59.0602C494.676 58.9997 492.421 58.9639 490.195 58.9535L490.178 61.0633ZM476.939 61.3017L476.79 59.1955C479.011 59.1049 481.266 59.0385 483.489 58.9986L483.555 61.1081C481.358 61.1491 479.132 61.2144 476.939 61.3035L476.939 61.3017ZM503.41 61.424C505.605 61.5336 507.826 61.6705 510.009 61.8301L510.275 59.7292C508.064 59.5689 505.816 59.4309 503.593 59.319L503.41 61.424ZM463.747 62.1423L463.431 60.0463C465.639 59.8546 467.883 59.686 470.102 59.5446L470.334 61.647C468.142 61.788 465.926 61.9547 463.746 62.1438L463.747 62.1423ZM516.588 62.3862C518.767 62.597 520.973 62.8338 523.142 63.0949L523.576 61.0104C521.376 60.7471 519.144 60.5058 516.937 60.2936L516.588 62.3862ZM450.643 63.5865L450.161 61.5091C452.353 61.2159 454.58 60.944 456.781 60.7008L457.18 62.7894C455.006 63.0307 452.807 63.2985 450.643 63.5883V63.5865ZM529.665 63.9542C531.825 64.2641 534.006 64.6039 536.151 64.9638L536.749 62.9039C534.578 62.5391 532.367 62.1953 530.181 61.8816L529.665 63.9542ZM437.683 65.6351L437.035 63.5838C439.198 63.1896 441.398 62.8152 443.578 62.4709L444.143 64.5367C441.992 64.8765 439.819 65.2461 437.683 65.6351ZM542.593 66.1248C544.724 66.5351 546.875 66.9748 548.985 67.4335L549.749 65.405C547.611 64.9403 545.433 64.4946 543.275 64.0795L542.593 66.1248ZM424.911 68.2798L424.911 68.2796C427.014 67.7911 429.153 67.322 431.27 66.8838L430.541 64.8482C428.397 65.2924 426.23 65.7679 424.099 66.2621L424.911 68.2796L424.91 68.2798H424.911ZM555.322 68.89C557.423 69.3994 559.541 69.9391 561.618 70.4986L562.545 68.5092C560.441 67.9441 558.293 67.3963 556.167 66.8801L555.322 68.89ZM412.375 71.5123L412.375 71.5121C414.434 70.9273 416.532 70.3594 418.61 69.822L417.717 67.8248C415.612 68.3671 413.487 68.9433 411.402 69.5356L412.375 71.5121L412.374 71.5123H412.375ZM567.846 72.2526C569.899 72.8586 571.968 73.4975 573.996 74.151L575.081 72.2086C573.03 71.5469 570.933 70.8995 568.853 70.2863L567.846 72.2526ZM400.14 75.315L399.011 73.3879C401.035 72.7031 403.103 72.0318 405.157 71.3933L406.209 73.3461C404.181 73.9768 402.139 74.6392 400.14 75.3153V75.315ZM580.065 76.1907C582.063 76.8904 584.076 77.6247 586.049 78.3706L587.288 76.4823C585.289 75.7256 583.251 74.983 581.228 74.2744L580.065 76.1907ZM388.249 79.6723L386.967 77.8008C388.929 77.0246 390.941 76.2589 392.945 75.5257L394.151 77.4256C392.173 78.1502 390.187 78.9066 388.249 79.6727L388.249 79.6723ZM591.939 80.6886C593.875 81.4782 595.825 82.3028 597.735 83.1408L599.123 81.3141C597.189 80.4656 595.214 79.6301 593.255 78.8298L591.939 80.6886ZM609.01 88.4425C607.174 87.5187 605.295 86.6049 603.426 85.7262L604.887 83.9326C606.78 84.8221 608.683 85.7475 610.543 86.6829L609.01 88.4425ZM614.483 91.2856C616.278 92.2497 618.08 93.2466 619.836 94.2536L621.509 92.5686C619.73 91.55 617.906 90.5389 616.086 89.5629L614.483 91.2856ZM630.172 100.552C628.493 99.4647 626.778 98.3849 625.067 97.3448L626.805 95.6996C628.535 96.7544 630.273 97.8475 631.974 98.9489L630.172 100.552ZM635.144 103.877C636.773 105.002 638.402 106.159 639.98 107.315L641.907 105.796C640.308 104.625 638.66 103.453 637.009 102.315L635.144 103.877ZM649.222 114.515C647.744 113.291 646.213 112.061 644.672 110.86L646.66 109.387C648.22 110.602 649.771 111.848 651.268 113.087L649.222 114.515ZM653.623 118.271C655.057 119.535 656.486 120.832 657.87 122.128L660.026 120.797C658.625 119.484 657.18 118.17 655.725 116.891L653.623 118.271ZM665.885 130.124C664.606 128.764 663.284 127.403 661.958 126.079L664.168 124.801C665.51 126.142 666.849 127.52 668.145 128.897L665.885 130.124ZM669.645 134.256C670.867 135.645 672.076 137.063 673.236 138.474L675.59 137.355C674.414 135.927 673.191 134.49 671.953 133.083L669.645 134.256ZM679.894 147.146C678.85 145.682 677.758 144.21 676.654 142.771L679.052 141.708C680.171 143.166 681.276 144.655 682.334 146.139L679.894 147.146ZM682.956 151.593C683.946 153.088 684.914 154.606 685.834 156.109L688.351 155.219C687.42 153.697 686.44 152.158 685.437 150.645L682.956 151.593ZM691.028 165.327C690.231 163.782 689.389 162.222 688.525 160.688L691.078 159.858C691.954 161.411 692.807 162.991 693.614 164.557L691.028 165.327ZM693.345 170.037C694.086 171.613 694.8 173.216 695.471 174.8L698.113 174.154C697.434 172.549 696.71 170.926 695.96 169.329L693.345 170.037ZM699.13 184.465C698.586 182.839 698.004 181.206 697.4 179.611L700.068 179.028C700.68 180.644 701.27 182.298 701.821 183.946L699.13 184.465ZM700.659 189.358C701.131 190.983 701.578 192.64 701.988 194.285L704.716 193.893C704.303 192.228 703.849 190.549 703.371 188.903L700.659 189.358ZM704.036 204.22C703.763 202.559 703.453 200.884 703.114 199.24L705.856 198.914C706.2 200.579 706.514 202.276 706.792 203.958L704.036 204.22ZM704.756 209.219C704.961 210.88 705.136 212.567 705.273 214.233L708.043 214.101C707.904 212.413 707.728 210.704 707.521 209.022L704.756 209.219ZM705.699 224.287C705.694 222.612 705.657 220.92 705.587 219.257L708.363 219.19C708.433 220.873 708.471 222.587 708.474 224.283L705.699 224.287ZM705.598 229.593L708.374 229.657H708.374C708.443 227.965 708.476 226.251 708.475 224.565H705.699C705.699 226.23 705.665 227.922 705.598 229.593ZM707.555 239.825L704.79 239.631C704.991 237.971 705.161 236.284 705.296 234.617L708.067 234.746C707.932 236.434 707.761 238.143 707.557 239.825H707.555ZM703.17 249.612L705.914 249.936H705.915C706.254 248.275 706.565 246.577 706.839 244.89L704.082 244.631C703.811 246.297 703.505 247.971 703.17 249.612ZM703.453 259.95L703.451 259.95C703.929 258.299 704.377 256.62 704.787 254.957L702.057 254.57C701.653 256.21 701.21 257.869 700.74 259.498L703.451 259.95L703.451 259.95L703.453 259.95ZM697.502 269.25L700.172 269.829C700.786 268.195 701.372 266.54 701.913 264.909L699.22 264.393C698.686 266.003 698.108 267.637 697.502 269.25ZM696.081 279.549L693.464 278.844C694.199 277.27 694.912 275.661 695.585 274.063L698.23 274.706C697.548 276.325 696.825 277.954 696.081 279.549ZM293.668 300.623C294.692 302.114 295.765 303.619 296.855 305.094L299.276 304.061C298.199 302.605 297.141 301.119 296.13 299.647L293.668 300.623ZM303.769 313.804C302.561 312.383 301.367 310.932 300.223 309.488L302.6 308.399C303.731 309.822 304.908 311.255 306.101 312.659L303.769 313.804ZM307.488 318.036C308.753 319.428 310.061 320.822 311.377 322.18L313.613 320.929C312.314 319.588 311.022 318.212 309.774 316.837L307.488 318.036ZM319.649 330.189C318.221 328.889 316.803 327.558 315.432 326.231L317.617 324.929C318.97 326.239 320.371 327.554 321.781 328.836L319.649 330.189ZM324.023 334.047C325.503 335.312 327.027 336.575 328.552 337.803L330.571 336.354C329.065 335.143 327.56 333.895 326.099 332.646L324.023 334.047ZM338.054 344.992C336.431 343.836 334.809 342.647 333.231 341.452L335.19 339.957C336.749 341.136 338.35 342.313 339.953 343.453L338.054 344.992ZM343.016 348.42C344.685 349.538 346.401 350.65 348.116 351.732L349.888 350.108C348.195 349.041 346.501 347.941 344.853 346.837L343.016 348.42ZM358.704 357.998C356.91 357.001 355.108 355.968 353.347 354.927L355.053 353.262C356.791 354.29 358.57 355.31 360.343 356.295L358.704 357.998ZM364.186 360.944C366.022 361.901 367.905 362.85 369.781 363.763L371.281 361.988C369.429 361.085 367.57 360.149 365.756 359.204L364.186 360.944ZM381.303 369.007C379.363 368.184 377.406 367.324 375.489 366.452L376.915 364.642C378.809 365.503 380.74 366.352 382.656 367.165L381.303 369.007ZM592.168 368.347L593.485 370.204V370.205C595.436 369.407 597.401 368.572 599.326 367.728L597.935 365.9C596.034 366.735 594.094 367.559 592.168 368.347ZM393.23 373.708C391.219 372.973 389.197 372.206 387.218 371.426L388.497 369.554C390.45 370.324 392.447 371.083 394.433 371.806L393.23 373.708ZM580.359 372.835L581.525 374.749C583.541 374.04 585.568 373.3 587.55 372.547L586.308 370.66C584.35 371.403 582.35 372.135 580.359 372.835ZM405.52 377.847C403.453 377.209 401.372 376.536 399.332 375.849L400.458 373.921C402.472 374.599 404.527 375.263 406.567 375.894L405.52 377.847ZM568.198 376.771L569.208 378.737C571.284 378.121 573.372 377.473 575.417 376.809L574.328 374.869C572.309 375.524 570.247 376.164 568.198 376.771ZM418.127 381.409C416.01 380.866 413.876 380.292 411.787 379.701L412.755 377.724C414.818 378.308 416.924 378.874 419.015 379.41L418.127 381.409ZM555.725 380.14L556.574 382.149C558.691 381.633 560.828 381.083 562.926 380.516L561.995 378.528C559.925 379.088 557.814 379.63 555.725 380.14ZM430.958 384.367C428.81 383.925 426.641 383.453 424.513 382.962L425.319 380.943C427.421 381.428 429.562 381.895 431.683 382.33L430.958 384.367ZM543.003 382.924L543.69 384.968V384.969C545.847 384.55 548.024 384.102 550.16 383.634L549.392 381.607C547.283 382.066 545.134 382.511 543.003 382.924ZM444.003 386.724C441.822 386.383 439.62 386.012 437.457 385.621L438.099 383.57C440.235 383.956 442.409 384.322 444.562 384.659L444.003 386.724ZM530.079 385.113L530.602 387.185C532.788 386.868 534.997 386.52 537.166 386.153L536.562 384.094C534.419 384.457 532.237 384.799 530.079 385.113ZM457.212 388.473C455.008 388.233 452.78 387.965 450.59 387.675L451.066 385.596C453.229 385.883 455.43 386.147 457.605 386.384L457.212 388.473ZM517.008 386.699L517.362 388.792C519.568 388.576 521.801 388.331 523.998 388.064L523.56 385.981C521.39 386.244 519.186 386.486 517.008 386.699ZM470.535 389.61C468.318 389.472 466.072 389.306 463.863 389.118L464.173 387.022C466.354 387.208 468.571 387.371 470.762 387.506L470.535 389.61ZM503.834 387.681L504.021 389.785C506.24 389.673 508.488 389.53 510.703 389.365L510.432 387.266C508.246 387.429 506.026 387.569 503.834 387.681ZM483.923 390.136C481.7 390.099 479.446 390.036 477.224 389.949L477.368 387.842C479.562 387.928 481.788 387.992 483.984 388.027L483.923 390.136ZM490.627 390.171L490.605 388.061C492.802 388.048 495.027 388.009 497.221 387.947L497.325 390.055C495.105 390.118 492.851 390.158 490.627 390.171Z" fill="#EFD883"/>
<path fill-rule="evenodd" clip-rule="evenodd" d="M655.186 48.2167H545.484C545.484 48.2167 554.226 -14.2828 577.827 25.927C577.827 25.927 597.931 -29.1428 618.91 28.9853C618.91 28.9849 655.186 16.7484 655.186 48.2167Z" fill="#CDE2FF"/>
<path fill-rule="evenodd" clip-rule="evenodd" d="M873.557 151.903H763.855C763.855 151.903 772.597 89.4033 796.198 129.613C796.198 129.613 816.303 74.5434 837.281 132.671C837.281 132.671 873.557 120.435 873.557 151.903Z" fill="#CDE2FF"/>
<path fill-rule="evenodd" clip-rule="evenodd" d="M134.14 267.109H24.4375C24.4375 267.109 33.179 204.61 56.78 244.82C56.78 244.82 76.8846 189.75 97.8633 247.878C97.8633 247.878 134.14 235.641 134.14 267.109Z" fill="#CDE2FF"/>
<defs>
<linearGradient id="paint0_linear" x1="449.999" y1="46.4564" x2="449.999" y2="527.895" gradientUnits="userSpaceOnUse">
<stop stop-color="#6A58F0"/>
<stop offset="1" stop-color="#B4ABF7"/>
</linearGradient>
</defs>
</svg>
